<?xml version="1.0" encoding="UTF-8" standalone="no"?>
<svg width="171px" height="78px" viewBox="0 0 171 78" version="1.1" xmlns="http://www.w3.org/2000/svg" xmlns:xlink="http://www.w3.org/1999/xlink" xmlns:sketch="http://www.bohemiancoding.com/sketch/ns">
    <!-- Generator: Sketch 3.0.4 (8053) - http://www.bohemiancoding.com/sketch -->
    <title>Imported Layers</title>
    <desc>Created with Sketch.</desc>
    <defs></defs>
    <g id="Page-1" stroke="none" stroke-width="1" fill="none" fill-rule="evenodd" sketch:type="MSPage">
        <g id="Imported-Layers" sketch:type="MSLayerGroup" transform="translate(0.000000, 1.000000)" fill="#333333">
            <path d="M61.908,0.13 C60.725,0.718 57.168,2.973 52.386,7.241 C44.762,14.139 37.02,23.097 31.848,29.42 C27.882,34.274 20.51,44.857 19.035,47.275 C18.444,48.258 17.921,48.727 17.349,48.834 C16.669,48.981 16.045,48.523 15.26,47.928 L14.529,47.402 C11.181,45.093 2.962,40.097 1.292,39.384 C0.619,39.115 0.398,39.062 0.313,39.079 C0.373,39.082 0.432,39.24 0.698,39.68 C1.364,40.781 7.437,51.534 10.248,57.024 C13.097,62.664 18.799,73.696 19.433,74.869 C20.043,75.989 20.635,76.575 21.145,76.542 C21.589,76.518 22.049,75.989 22.459,75.003 C23.82,71.698 30.143,58.316 34.007,50.347 C38.352,41.257 48.43,22.055 52.426,14.872 C56.344,7.921 61.329,1.497 62.397,0.409 C62.878,-0.101 62.92,-0.265 62.932,-0.297 C62.906,-0.254 62.654,-0.241 61.908,0.13" id="Fill-1" sketch:type="MSShapeGroup"></path>
            <path d="M69.948,23.113 L60.231,23.113 L60.19,23.235 L60.19,56.765 L64.927,56.765 C64.953,46.897 64.874,36.921 64.967,27.122 C65.253,27.136 65.54,27.141 65.825,27.141 C66.251,27.141 66.673,27.129 67.087,27.119 C67.499,27.108 67.903,27.095 68.296,27.095 C69.393,27.095 70.377,27.184 71.122,27.608 C72.511,28.396 73.37,29.886 73.431,32.063 C73.495,34.337 72.645,35.827 71.488,36.84 C70.626,37.596 69.412,38.167 68.126,38.542 C67.654,38.679 67.118,38.774 66.994,39.109 C66.807,39.608 67.252,40.283 67.52,40.729 C68.955,43.131 70.293,45.415 71.649,47.736 C72.789,49.682 73.866,51.416 74.971,53.325 C75.545,54.313 76.071,55.204 76.915,55.835 C77.827,56.517 78.912,56.765 80.437,56.765 L84.934,56.765 C84.403,56.21 83.725,55.731 83.112,55.187 C82.647,54.776 82.147,54.313 81.735,53.889 C80.416,52.543 79.161,51.054 78.132,49.436 C76.28,46.533 74.486,43.499 72.7,40.566 C75.415,39.426 77.223,37.103 77.928,33.966 C78.558,31.154 77.961,27.967 76.549,26.109 C75.21,24.344 72.851,23.113 69.948,23.113" id="Fill-2" sketch:type="MSShapeGroup"></path>
            <path d="M89.77,31.581 C88.541,31.581 87.32,31.817 86.269,32.264 C82.324,33.948 80.1,37.734 79.707,42.997 C79.516,45.61 79.968,48.281 80.883,50.328 C82.65,54.274 85.917,57.001 91.168,57.253 L91.94,57.253 C95.61,57.119 98.237,55.739 100.402,54.054 C102.576,52.361 104.366,50.224 105.951,47.938 C105.515,47.145 104.957,46.185 104.413,45.262 C104.267,45.023 104.042,44.501 103.805,44.494 L103.797,44.494 C103.597,44.494 103.443,44.81 103.237,45.103 C102.143,46.652 100.888,48.189 99.554,49.394 C97.955,50.835 96.053,52.162 93.761,52.718 C93.105,52.873 92.478,52.947 91.882,52.947 C89.779,52.947 88.07,52.047 86.997,50.811 C85.555,49.152 84.8,46.97 84.691,44.008 C85.423,44.005 86.156,44.004 86.891,44.004 C87.981,44.004 89.073,44.008 90.167,44.011 C91.245,44.013 92.323,44.015 93.4,44.015 C95.316,44.015 97.224,44.005 99.107,43.97 C99.176,41.101 98.666,38.66 97.689,36.721 C96.731,34.814 95.282,33.237 93.398,32.348 C92.303,31.828 91.031,31.581 89.77,31.581 M84.609,40.485 C84.877,39.218 85.27,38.057 85.984,37.164 C86.654,36.333 87.7,35.576 88.984,35.463 C89.192,35.447 89.392,35.437 89.585,35.437 C92.663,35.437 93.963,37.696 94.411,40.485 L84.609,40.485" id="Fill-3" sketch:type="MSShapeGroup"></path>
            <path d="M125.528,31.535 L125.348,31.535 C121.879,31.597 119.296,33.295 117.573,35.424 C115.853,37.55 114.673,40.479 114.617,44.09 C114.56,47.89 115.545,50.878 117.209,53.12 C118.859,55.345 121.081,57.079 124.742,57.21 L124.822,57.252 L125.106,57.252 C128.713,57.045 131.031,55.383 132.76,53.161 C134.398,51.057 135.595,47.944 135.595,44.535 C135.595,40.731 134.642,37.881 132.961,35.546 C131.419,33.4 129.065,31.535 125.528,31.535 M125.14,53.042 C124.57,53.042 124.003,52.939 123.485,52.716 C122.92,52.471 122.29,52 121.864,51.542 C120.391,49.942 119.41,47.155 119.354,44.25 C119.323,42.608 119.535,41.104 119.923,39.96 C120.447,38.405 121.433,37.007 122.796,36.274 C123.27,36.02 123.883,35.852 124.579,35.788 C124.74,35.773 124.898,35.766 125.052,35.766 C126.127,35.766 127.044,36.116 127.779,36.679 C130.564,38.815 131.852,45.287 130.087,49.395 C129.543,50.659 128.675,51.741 127.575,52.393 C126.884,52.801 126.009,53.042 125.14,53.042" id="Fill-4" sketch:type="MSShapeGroup"></path>
            <path d="M146.242,31.51 C146.032,31.51 145.816,31.519 145.597,31.537 C144.131,31.649 142.938,32.392 142.114,33.199 C141.712,33.587 141.449,34.097 141.02,34.451 L141.02,32.184 L136.525,32.184 L136.525,56.563 L141.02,56.563 L141.02,46.357 C141.02,42.114 140.333,36.639 143.733,35.83 C144.068,35.749 144.435,35.71 144.803,35.71 C145.665,35.71 146.563,35.923 147.177,36.354 C147.976,36.918 148.496,37.969 148.796,39.109 C149.423,41.484 149.24,44.621 149.24,47.614 L149.24,56.563 L153.736,56.563 L153.736,48.301 C153.736,45.478 153.862,42.626 153.736,39.999 C153.604,37.226 153.036,35.246 151.63,33.804 C150.445,32.585 148.644,31.51 146.242,31.51" id="Fill-5" sketch:type="MSShapeGroup"></path>
            <path d="M163.91,31.528 C163.323,31.528 162.697,31.584 162.037,31.698 C161.728,31.75 161.417,31.82 161.107,31.901 C160.774,31.988 160.367,32.047 160.135,32.184 C159.836,32.363 159.606,32.837 159.366,33.197 C158.897,33.895 158.418,34.528 158.031,35.424 C157.817,35.907 157.669,36.573 158.112,36.8 C158.191,36.841 158.279,36.858 158.37,36.858 C158.694,36.858 159.06,36.652 159.285,36.557 C160.262,36.147 161.529,35.702 162.873,35.702 C162.959,35.702 163.045,35.704 163.131,35.709 C164.436,35.763 165.507,36.35 166.007,37.206 C166.513,38.065 166.419,39.554 165.721,40.244 C164.939,41.019 163.529,41.314 162.202,41.661 C160.909,41.997 159.594,42.323 158.476,42.835 C156.124,43.906 154.795,45.588 154.584,48.747 C154.285,53.388 156.788,56.525 160.904,57.05 C161.223,57.091 161.553,57.109 161.883,57.109 C162.961,57.109 164.07,56.887 164.953,56.36 C165.547,56.005 165.861,55.554 166.413,55.026 C166.438,55.512 166.359,56.102 166.452,56.522 L170.663,56.522 L170.663,38.745 C170.519,34.497 168.215,31.528 163.91,31.528 M163.146,52.964 C161.996,52.964 160.88,52.638 160.217,51.947 C159.137,50.822 158.894,48.204 159.973,46.885 C160.69,46.008 162.159,45.613 163.416,45.225 C164.451,44.901 165.497,44.6 166.292,44.089 L166.331,44.131 C166.397,46.681 166.363,49.336 166.37,51.947 C165.578,52.61 164.345,52.964 163.146,52.964" id="Fill-6" sketch:type="MSShapeGroup"></path>
            <path d="M112.196,32.18 C112.031,32.18 111.872,32.191 111.74,32.223 C111.523,32.28 111.154,32.637 110.893,32.872 C110.087,33.59 109.368,34.56 108.826,35.384 C107.969,36.691 107.382,38.039 106.719,39.393 C105.366,37.034 104.069,34.62 102.751,32.223 C102.466,32.227 102.176,32.23 101.886,32.23 C101.494,32.23 101.099,32.227 100.704,32.223 C100.306,32.22 99.908,32.218 99.514,32.218 C98.807,32.218 98.113,32.227 97.447,32.266 L97.526,32.347 C100.852,38.157 104.387,44.301 107.813,50.245 C108.633,51.668 109.545,53.281 110.404,54.702 C110.726,55.226 111.051,55.734 111.418,56.038 C111.672,56.244 112.129,56.505 112.55,56.562 C112.816,56.598 113.113,56.612 113.427,56.612 C114.054,56.612 114.756,56.562 115.424,56.562 L118.343,56.562 C117.895,56.119 117.349,55.796 116.885,55.389 C116.408,54.972 115.982,54.484 115.586,53.971 C114.808,52.956 114.105,51.83 113.443,50.691 C112.105,48.391 110.819,45.985 109.514,43.724 C110.761,40.787 112.289,37.682 114.169,35.303 C114.801,34.504 115.51,33.703 116.398,33.155 C116.65,33.001 117.488,32.85 117.368,32.426 C117.32,32.247 117.012,32.216 116.656,32.216 C116.48,32.216 116.291,32.223 116.116,32.223 L113.199,32.223 C112.899,32.223 112.526,32.18 112.196,32.18" id="Fill-7" sketch:type="MSShapeGroup"></path>
        </g>
    </g>
</svg>