<?xml version="1.0" encoding="UTF-8" standalone="no"?>
<svg width="287px" height="285px" viewBox="0 0 287 285" version="1.1" xmlns="http://www.w3.org/2000/svg" xmlns:xlink="http://www.w3.org/1999/xlink" xmlns:sketch="http://www.bohemiancoding.com/sketch/ns">
    <!-- Generator: Sketch 3.0.4 (8053) - http://www.bohemiancoding.com/sketch -->
    <title>Imported Layers</title>
    <desc>Created with Sketch.</desc>
    <defs>
        <path id="path-1" d="M114.11,0.092 L8.777,85.425 L0.104,134.734 L111.284,245.72 L223.504,133.592 L225.569,94.925 L114.11,0.092"></path>
        <path d="M25.085,-0.132 L14.237,-0.132 L0.461,13.644 C0.454,17.273 0.451,20.896 0.462,24.516 L6.037,18.895 L6.609,18.324 C6.834,14.825 7.139,11.33 7.376,7.832 C7.389,7.637 7.441,7.445 7.481,7.215 L17.73,7.215 L25.085,-0.132 M140.182,-0.156 L128.873,-0.156 L136.228,7.26 L140.405,7.26 C140.541,8.816 140.723,10.376 140.868,11.938 L147.408,18.531 C147.429,14.726 147.438,10.921 147.454,7.116 L140.182,-0.156 M147.487,-0.156 L145.839,-0.156 L147.484,1.489 C147.485,1.368 147.486,1.247 147.486,1.126 C147.49,0.695 147.487,0.264 147.487,-0.156" id="path-3"></path>
        <path d="M18.405,19.069 L18.26,19.154 L18.262,19.156 L18.405,19.071 L18.405,19.069 M11.868,11.938 C11.872,11.979 11.876,12.021 11.88,12.062 L18.408,18.655 L18.408,18.531 L11.868,11.938 M-0.127,-0.156 L-0.218,-0.156 L7.125,7.26 L7.228,7.26 L-0.127,-0.156" id="path-5"></path>
        <path d="M-0.443,71.799 L-0.439,74.646 L-0.422,71.8 C-0.429,71.799 -0.436,71.799 -0.443,71.799 M43.685,66.772 C43.572,66.85 43.46,66.927 43.346,67.004 L47.411,69.383 C47.527,69.293 47.642,69.202 47.757,69.111 L43.685,66.772 M34.783,61.658 C34.713,61.729 34.643,61.8 34.572,61.87 L36.414,62.947 C36.305,62.762 36.19,62.578 36.069,62.397 L34.783,61.658 M-0.302,52.404 L-0.472,52.439 L-0.446,69.802 C-0.434,69.802 -0.421,69.802 -0.409,69.803 L-0.302,52.404 M11.772,48.439 L11.721,48.499 L33.373,61.168 C33.446,61.104 33.518,61.039 33.59,60.973 L11.772,48.439 M39.009,18.353 L18.889,30.07 L18.765,30.592 L38.754,18.778 C38.839,18.636 38.924,18.494 39.009,18.353 M70.26,0.154 L64.3,3.624 C64.301,3.643 64.301,3.66 64.301,3.679 L70.262,0.156 L70.26,0.154" id="path-7"></path>
        <path d="M14.237,-0.132 L9.401,-0.132 L0.472,8.761 C0.468,10.39 0.464,12.017 0.461,13.644 L14.237,-0.132 M145.839,-0.156 L140.182,-0.156 L147.454,7.116 C147.461,5.24 147.471,3.365 147.484,1.489 L145.839,-0.156" id="path-9"></path>
        <path d="M12.88,12.062 C12.906,12.346 12.931,12.629 12.954,12.913 L19.26,19.154 L19.405,19.069 C19.406,18.931 19.407,18.793 19.408,18.655 L12.88,12.062 M0.782,-0.156 L-0.253,-0.156 L7.241,7.26 L8.125,7.26 L0.782,-0.156" id="path-11"></path>
        <path d="M63.954,12.913 C64.024,13.78 64.077,14.648 64.099,15.516 C64.159,17.884 64.237,20.255 64.3,22.624 L70.26,19.154 L63.954,12.913 M50.747,-0.156 L36.033,-0.156 L36.033,22 C34.748,21.177 33.462,20.214 32.053,19.493 C30.903,18.905 29.626,18.531 28.371,18.189 C21.562,16.337 14.59,15.59 7.57,15.188 C5.144,15.049 2.72,14.948 0.298,14.891 L0.3,16.484 C8.233,16.696 16.086,17.237 23.792,19.155 C25.598,19.604 27.348,20.314 29.084,21.006 C29.746,21.269 30.354,21.754 30.881,22.25 C31.369,22.71 31.626,23.236 31.623,23.744 C31.62,24.238 31.372,24.715 30.853,25.102 C29.696,25.964 28.389,26.712 27.037,27.207 C22.177,28.986 17.075,29.67 11.96,30.175 C11.802,30.191 11.644,30.206 11.486,30.221 C7.766,30.578 4.042,30.807 0.314,30.896 L0.319,36.024 C4.247,36.089 7.372,36.165 7.372,36.165 L19.779,45.313 L18.889,49.07 L39.009,37.353 C39.937,35.81 40.874,34.273 41.783,32.72 C42.056,32.253 42.231,31.668 42.256,31.129 C42.619,23.371 42.946,15.612 43.285,7.853 C43.293,7.691 43.328,7.531 43.365,7.26 L58.241,7.26 L50.747,-0.156" id="path-13"></path>
        <path d="M0.609,18.324 L0.037,18.895 L0.206,18.995 L0.591,18.61 C0.597,18.514 0.603,18.419 0.609,18.324 M19.283,-0.132 L19.085,-0.132 L11.73,7.215 L11.955,7.215 L19.283,-0.132" id="path-15"></path>
        <path d="M0.591,18.61 L0.206,18.995 L0.487,19.161 L0.561,19.087 C0.571,18.928 0.581,18.769 0.591,18.61 M19.937,-0.132 L19.283,-0.132 L11.955,7.215 L12.53,7.215 L19.937,-0.132" id="path-17"></path>
        <path d="M0.561,19.087 L0.487,19.161 L0.554,19.2 C0.557,19.163 0.559,19.125 0.561,19.087 M28.757,-0.132 L19.937,-0.132 L12.53,7.215 L21.444,7.215 C21.534,8.977 21.63,10.679 21.707,12.382 C21.982,18.507 22.23,24.633 22.546,30.757 C22.573,31.288 22.7,31.849 22.902,32.365 L50.013,48.337 L50.429,42.737 C50.429,42.738 54.808,36.688 55.778,36.165 C56.101,35.99 58.72,35.932 62.067,35.932 C64.735,35.932 67.865,35.969 70.667,36.014 L70.7,30.91 C69.739,30.929 68.778,30.939 67.817,30.939 L67.793,30.939 L67.78,30.939 C65.113,30.939 62.446,30.865 59.776,30.712 C59.59,30.702 59.404,30.691 59.217,30.679 C51.883,30.23 44.56,29.65 37.543,27.233 C36.289,26.8 35.055,26.182 33.967,25.427 C33.218,24.906 32.831,24.246 32.833,23.609 C32.834,22.982 33.213,22.377 33.994,21.95 C36.112,20.791 38.387,19.776 40.718,19.177 C49.598,16.895 58.7,16.561 67.741,16.407 C68.759,16.424 69.776,16.445 70.792,16.47 L70.802,14.88 C69.497,14.853 68.191,14.838 66.887,14.838 C58.368,14.838 49.878,15.446 41.441,16.978 C37.014,17.781 32.538,18.613 28.757,21.791 L28.757,-0.132" id="path-19"></path>
        <path d="M0.314,15.896 C0.109,15.901 -0.096,15.906 -0.3,15.91 L-0.333,21.014 C-0.114,21.017 0.104,21.02 0.319,21.024 L0.314,15.896 M-0.198,-0.12 L-0.208,1.47 C-0.039,1.475 0.131,1.479 0.3,1.484 L0.298,-0.109 C0.132,-0.113 -0.032,-0.117 -0.198,-0.12" id="path-21"></path>
        <path id="path-23" d="M0.405,0.071 L0.262,0.156 L0.404,0.296 C0.404,0.221 0.405,0.146 0.405,0.071"></path>
        <path d="M23.183,61.241 C23.051,61.382 22.917,61.521 22.783,61.658 L24.069,62.397 C23.805,62.001 23.511,61.616 23.183,61.241 M26.754,18.778 L6.765,30.592 L3.613,43.894 L-0.228,48.439 L21.59,60.973 C22.166,60.446 22.718,59.878 23.242,59.263 C23.477,59.453 23.702,59.635 24.048,59.915 C24.078,59.576 24.113,59.354 24.113,59.131 C24.116,47.6 24.102,36.07 24.146,24.539 C24.15,23.7 24.424,22.773 24.842,22.039 C25.464,20.944 26.106,19.859 26.754,18.778 M58.262,0.156 L52.301,3.679 C52.416,7.994 52.484,12.309 52.318,16.614 C51.85,28.728 49.82,40.561 44.311,51.544 C41.261,57.625 37.258,62.901 31.685,66.772 L35.757,69.111 C44.303,62.35 50.595,53.902 54.024,43.36 C56.919,34.461 57.971,25.256 58.194,15.975 C58.319,10.75 58.373,5.524 58.404,0.296 L58.262,0.156" id="path-25"></path>
        <path d="M34.572,13.87 C28.936,19.479 21.723,21.553 14.177,22.802 C9.833,23.522 5.481,23.811 1.122,23.811 C0.607,23.811 0.093,23.807 -0.422,23.8 L-0.439,26.646 L-0.435,29.509 L36.823,29.509 C36.932,29.257 37.037,29.002 37.138,28.744 C37.283,28.375 37.694,28.069 38.047,27.829 C40.746,25.991 43.541,24.283 46.159,22.337 C46.582,22.022 46.999,21.705 47.411,21.383 L43.346,19.004 C42.857,19.335 42.356,19.655 41.843,19.965 C40.745,20.626 39.558,21.138 38.238,21.809 C38.078,19.249 37.592,16.96 36.414,14.947 L34.572,13.87 M11.721,0.499 L10.244,2.247 L-0.302,4.404 L-0.409,21.803 C-0.115,21.805 0.18,21.806 0.475,21.806 C1.71,21.806 2.947,21.787 4.184,21.75 C12.061,21.513 19.807,20.464 27.073,17.14 C29.352,16.097 31.489,14.841 33.373,13.168 L11.721,0.499" id="path-27"></path>
        <path d="M13.272,14.469 L7.701,17.659 C7.479,18.599 7.314,19.571 7.088,20.555 C6.255,20.209 5.449,19.821 4.669,19.396 L0.33,21.881 C2.403,23.418 4.553,24.856 6.764,26.216 C7.219,26.495 7.757,26.925 7.894,27.391 C8.005,27.771 8.126,28.144 8.256,28.509 L51.543,28.509 L51.561,25.646 L51.557,22.799 C47.836,22.742 44.111,22.486 40.387,22.118 C33.912,21.479 27.523,20.426 21.362,18.278 C18.555,17.298 15.82,16.162 13.272,14.469 M38.342,0.111 L15.05,13.451 C20.007,16.28 25.54,17.709 31.184,18.806 C37.915,20.115 44.717,20.75 51.554,20.802 L51.528,3.439 L46.199,4.529 L45.328,4.04 L38.342,0.111" id="path-29"></path>
        <path id="path-31" d="M-0.439,-0.354 L-0.457,2.509 L-0.435,2.509 L-0.439,-0.354"></path>
        <path id="path-33" d="M6.037,-0.105 L0.462,5.516 C0.462,5.595 0.462,5.675 0.463,5.754 L6.206,-0.004 L6.037,-0.105"></path>
        <path id="path-35" d="M6.206,-0.004 L0.463,5.754 C0.463,5.881 0.463,6.008 0.464,6.135 L6.486,0.162 L6.206,-0.004"></path>
        <path d="M35.182,61.022 C34.451,62.461 33.648,63.731 33.15,65.11 C32.982,65.573 32.848,66.048 32.731,66.532 L38.173,63.402 C37.143,62.71 36.143,61.925 35.182,61.022 M28.951,13.486 C29.03,13.673 29.119,13.854 29.217,14.024 C30.801,16.786 32.504,19.48 34.093,22.239 C34.439,22.837 34.658,23.601 34.66,24.29 C34.694,35.657 34.684,47.024 34.684,58.391 L34.684,59.987 C35.082,59.637 35.287,59.456 35.492,59.276 C36.909,60.471 38.396,61.498 39.939,62.387 L63.181,49.021 L54.898,44.363 L55.999,29.528 L28.951,13.486 M6.486,0.162 L0.464,6.135 C0.472,8.538 0.488,10.94 0.513,13.342 C0.595,21.275 1.313,29.163 3.016,36.936 C5.315,47.434 9.963,56.67 17.634,64.298 C20.024,66.674 22.577,68.835 25.26,70.829 L29.577,68.346 C27.035,66.948 24.762,65.153 22.687,63.085 C17.097,57.509 13.527,50.721 11.066,43.308 C6.876,30.69 5.936,17.656 6.353,4.483 C6.398,3.055 6.468,1.629 6.554,0.202 L6.486,0.162" id="path-37"></path>
        <path id="path-39" d="M0.037,-0.105 L0.206,-0.004 L0.206,-0.005 L0.037,-0.105"></path>
        <path id="path-41" d="M0.206,-0.005 L0.206,-0.004 L0.486,0.162 L0.487,0.161 L0.206,-0.005"></path>
        <path d="M22.902,13.365 C22.918,13.406 22.934,13.446 22.951,13.486 L49.999,29.528 L50.013,29.337 L22.902,13.365 M0.487,0.161 L0.486,0.162 L0.554,0.202 L0.554,0.2 L0.487,0.161" id="path-43"></path>
        <path d="M4.577,19.346 L0.26,21.829 C0.283,21.846 0.306,21.864 0.33,21.881 L4.669,19.396 C4.638,19.379 4.608,19.363 4.577,19.346 M13.173,14.402 L7.731,17.532 C7.721,17.574 7.711,17.617 7.701,17.659 L13.272,14.469 C13.239,14.447 13.206,14.425 13.173,14.402 M38.181,0.021 L14.939,13.387 C14.976,13.408 15.013,13.429 15.05,13.451 L38.342,0.111 L38.181,0.021" id="path-45"></path>
        <path id="path-47" d="M1.441,0.009 L-0.37,0.009 L-0.345,16.276 C1.575,16.345 3.453,16.475 5.281,16.663 C4.121,14.237 3.249,11.65 2.646,8.912 C1.998,5.966 1.637,2.996 1.441,0.009"></path>
        <path id="path-49" d="M11.275,0.009 L3.882,0.009 C3.737,2.236 3.539,4.458 3.223,6.661 C2.72,10.176 1.766,13.512 0.292,16.613 C2.945,16.357 5.704,16.221 8.535,16.221 C9.422,16.221 10.303,16.235 11.175,16.261 L11.275,0.009"></path>
        <path id="path-51" d="M0.63,0.009 L0.275,0.009 L0.175,16.261 C0.336,16.266 0.494,16.271 0.655,16.276 L0.63,0.009"></path>
        <path id="path-53" d="M0.284,9.72 L0.023,9.459 L0.076,9.405 L0.25,9.578 L0.253,9.575 C0.377,9.451 3.838,5.976 9.511,0.28 C9.54394742,0.319936271 9.57789166,0.360869359 9.61084226,0.400808806 L0.284,9.72"></path>
        <path id="path-55" d="M9.505,0.273 L0.253,9.575 C0.377,9.451 3.838,5.976 9.511,0.28 C9.509,0.277 9.507,0.275 9.505,0.273"></path>
        <path id="path-57" d="M9.317,0.044 L0.076,9.405 L0.25,9.578 L0.253,9.575 L9.505,0.273 C9.442,0.197 9.379,0.121 9.317,0.044"></path>
        <path id="path-59" d="M-0.322,0.11505742 L-0.322,0.006 L0.076,0.405 L0.023,0.459 L-0.0232392601,0.413296847 L-0.322,0.11505742"></path>
        <path id="path-61" d="M-0.345,0.276 L-0.322,16.006 L0.076,16.405 L9.317,7.044 C7.708,5.065 6.368,2.935 5.281,0.663 C3.453,0.475 1.575,0.345 -0.345,0.276"></path>
        <path id="path-63" d="M-0.106,0.22 C-0.123,0.248 -0.14,0.276 -0.156,0.303 L12.081,12.519 L12.081,12.41 L-0.106,0.22"></path>
        <path id="path-65" d="M9.535,0.221 C6.704,0.221 3.945,0.357 1.292,0.613 C0.869,1.502 0.404,2.371 -0.106,3.22 L12.081,15.41 L12.175,0.261 C11.303,0.235 10.422,0.221 9.535,0.221"></path>
        <path id="path-67" d="M0.081,0.41 L0.081,0.519 L0.678,1.115 L0.678,1.006 L0.081,0.41"></path>
        <path id="path-69" d="M0.175,0.261 L0.081,15.41 L0.678,16.006 L0.655,0.276 C0.494,0.271 0.336,0.266 0.175,0.261"></path>
        <path d="M-0.258,15.363 C-0.333,15.371 -0.408,15.379 -0.483,15.387 L-0.472,22.439 L-0.302,22.404 L-0.258,15.363 M4.678,14.364 C4.672,14.365 4.667,14.367 4.662,14.368 L11.721,18.499 L11.772,18.439 L4.678,14.364 M18.889,0.07 L8.433,6.159 C8.447,6.332 8.459,6.504 8.469,6.677 L18.765,0.592 L18.889,0.07" id="path-71"></path>
        <path id="path-73" d="M0.319,0.024 L0.322,2.555 C2.096,2.85 3.878,3.152 5.656,3.482 C6.36,3.612 7.051,3.941 7.689,4.288 C8.695,4.836 9.206,5.721 8.781,6.851 C7.356,10.646 7.94,14.493 8.355,18.349 C8.385,18.619 8.411,18.889 8.433,19.159 L18.889,13.07 L19.779,9.313 L7.372,0.165 C7.372,0.165 4.247,0.089 0.319,0.024"></path>
        <path id="path-75" d="M12.067,-0.068 C8.72,-0.068 6.101,-0.01 5.778,0.165 C4.808,0.688 0.429,6.737 0.429,6.737 L0.013,12.337 L6.701,16.276 C6.706,16.122 6.71,15.968 6.712,15.814 C6.739,13.422 6.886,10.975 6.457,8.649 C5.842,5.313 6.341,4.035 9.719,3.29 C12.336,2.714 15.014,2.413 17.8,1.969 C18.746,2.128 19.697,2.285 20.651,2.444 L20.667,0.014 C17.865,-0.031 14.735,-0.068 12.067,-0.068"></path>
        <path id="path-77" d="M-0.333,0.014 L-0.349,2.444 C-0.125,2.481 0.098,2.518 0.322,2.555 L0.319,0.024 C0.104,0.02 -0.114,0.017 -0.333,0.014"></path>
        <path id="path-79" d="M13.765,-0.408 L3.469,5.677 C3.576,7.513 3.427,9.323 2.505,11.043 C1.917,12.14 1.141,12.921 -0.084,13.293 C-0.164,13.317 -0.243,13.34 -0.322,13.364 L6.772,17.439 L10.613,12.894 L13.765,-0.408"></path>
        <path id="path-81" d="M4.662,0.368 C3.024,0.85 1.383,1.181 -0.258,1.363 L-0.302,8.404 L10.244,6.247 L11.721,4.499 L4.662,0.368"></path>
        <path id="path-83" d="M7.042,0.273 L0.342,4.111 L7.328,8.04 L8.199,8.529 L13.528,7.439 L13.517,0.387 C12.597,0.481 11.677,0.528 10.756,0.528 C9.519,0.528 8.281,0.443 7.042,0.273"></path>
        <path id="path-85" d="M0.999,-0.472 L-0.102,14.363 L8.181,19.021 L14.765,15.234 C13.623,15.066 12.48,14.825 11.337,14.513 C8.999,13.873 7.418,11.656 7.368,8.796 C7.336,7.032 7.613,5.265 7.692,3.498 L0.999,-0.472"></path>
        <path id="path-87" d="M0.013,0.337 L-0.001,0.528 L6.692,4.498 C6.695,4.424 6.698,4.35 6.701,4.276 L0.013,0.337"></path>
        <path id="path-89" d="M6.765,0.234 L0.181,4.021 L0.342,4.111 L7.042,0.273 C6.95,0.261 6.858,0.248 6.765,0.234"></path>
        <path id="path-91" d="M114.11,0.092 L8.777,85.425 L0.104,134.734 L111.284,245.72 L223.504,133.592 L225.569,94.925 L114.11,0.092"></path>
    </defs>
    <g id="Page-1" stroke="none" stroke-width="1" fill="none" fill-rule="evenodd" sketch:type="MSPage">
        <g id="Imported-Layers" sketch:type="MSLayerGroup" transform="translate(0.000000, 1.000000)">
            <path d="M284.47,142.697 L144.188,1.313 L1.803,142.697 L143.137,284.03 L284.47,142.697" id="Fill-1" fill="#FFFFFF" sketch:type="MSShapeGroup"></path>
            <path d="M144.139,1.231 L1.906,142.333 L144.17,282.653 L284.906,142.333 L144.139,1.231" id="Fill-2" fill="#181A1A" sketch:type="MSShapeGroup"></path>
            <path d="M144.139,1.231 L143.434,0.521 L0.484,142.335 L144.173,284.061 L286.32,142.335 L144.142,-0.181 L143.434,0.521 L144.139,1.231 L143.431,1.937 L283.491,142.331 L144.166,281.244 L3.328,142.331 L144.843,1.941 L144.139,1.231 L143.431,1.937 L144.139,1.231" id="Fill-3" fill="#9ABD3D" sketch:type="MSShapeGroup"></path>
            <path d="M144.25,254.578 C143.141,253.088 33.147,143.437 32.047,142.328 L32,142.312 L144.231,29.779 L144.408,29.958 L255.879,142.341 C229.892,168.604 144.25,254.578 144.25,254.578 M32.833,141.787 C44.706,153.752 139.052,248.844 143.699,253.901 C147.528,250.9 217.844,180.07 255.175,142.341 L144.083,32 L32.833,141.787" id="Fill-4" fill="#FFFFFF" sketch:type="MSShapeGroup"></path>
            <path d="M255.879,142.341 L143.796,31.421 L32,142.312 L144.25,254.578 L255.879,142.341" id="Fill-5" fill="#FFFFFF" sketch:type="MSShapeGroup"></path>
            <path d="M270.5,142.333 L271.914,140.919 L144.221,13.226 L15.114,142.333 L144.221,271.44 L273.328,142.333 L271.914,140.919 L270.5,142.333 L269.086,140.919 L144.221,265.783 L20.771,142.333 L144.221,18.883 L269.086,143.748 L270.5,142.333 L269.086,140.919 L270.5,142.333" id="Fill-6" fill="#FFFFFF" sketch:type="MSShapeGroup"></path>
            <path d="M144.231,29.779 L144.231,29.779 L144.408,29.958 L144.562,30.113 L144.231,29.779" id="Fill-7" fill="#1C1D1D" sketch:type="MSShapeGroup"></path>
            <path d="M214.408,100.655 C214.407,100.793 214.406,100.931 214.405,101.069 L214.667,100.917 L214.408,100.655 M203.125,89.26 L202.241,89.26 L207.954,94.913 C207.931,94.629 207.906,94.346 207.88,94.062 L203.125,89.26 M144.231,29.779 L144.233,31.854 L194.747,81.844 L195.782,81.844 L144.562,30.113 L144.408,29.958 L144.231,29.779" id="Fill-8" fill="#F6F4F2" sketch:type="MSShapeGroup"></path>
            <path d="M155.486,112.221 C151.767,112.577 148.042,112.807 144.314,112.896 C148.042,112.807 151.766,112.578 155.486,112.221 M202.241,89.26 L187.365,89.26 C187.328,89.531 187.293,89.691 187.285,89.853 C186.946,97.612 186.619,105.371 186.256,113.129 C186.231,113.668 186.056,114.253 185.783,114.72 C184.874,116.273 183.937,117.81 183.009,119.353 L208.3,104.624 C208.237,102.255 208.159,99.884 208.099,97.516 C208.077,96.648 208.024,95.78 207.954,94.913 L202.241,89.26 M144.233,31.854 L144.298,96.891 C146.72,96.948 149.144,97.049 151.57,97.188 C158.59,97.59 165.562,98.337 172.371,100.189 C173.626,100.531 174.903,100.905 176.053,101.493 C177.462,102.214 178.748,103.177 180.033,104 L180.033,81.844 L194.747,81.844 L144.233,31.854" id="Fill-9" fill="#F6F4F2" sketch:type="MSShapeGroup"></path>
            <path d="M84.955,89.215 L84.73,89.215 L73.609,100.324 C73.603,100.419 73.597,100.514 73.591,100.61 L84.955,89.215 M144.231,29.779 L92.085,81.868 L92.283,81.868 L144.231,29.779" id="Fill-10" fill="#73706F" sketch:type="MSShapeGroup"></path>
            <path d="M85.53,89.215 L84.955,89.215 L73.591,100.61 C73.581,100.769 73.571,100.928 73.561,101.087 L85.53,89.215 M144.231,29.779 L92.283,81.868 L92.937,81.868 L143.796,31.421 L144.218,31.839 L144.231,29.779" id="Fill-11" fill="#E4E5E4" sketch:type="MSShapeGroup"></path>
            <path d="M140.78,112.939 L140.793,112.939 L140.78,112.939 M143.7,112.91 C142.739,112.929 141.778,112.939 140.817,112.939 C141.778,112.939 142.739,112.929 143.7,112.91 M105.833,105.609 C105.831,106.246 106.218,106.906 106.967,107.427 C108.055,108.182 109.289,108.8 110.543,109.233 C117.56,111.65 124.883,112.23 132.217,112.679 C132.404,112.691 132.59,112.702 132.776,112.712 C132.59,112.702 132.404,112.691 132.217,112.679 C124.883,112.23 117.56,111.65 110.543,109.233 C109.289,108.8 108.055,108.182 106.967,107.427 C106.218,106.906 105.831,106.246 105.833,105.609 M94.444,89.215 L85.53,89.215 L73.561,101.087 C73.559,101.125 73.557,101.163 73.554,101.2 L95.902,114.365 C95.7,113.849 95.573,113.288 95.546,112.757 C95.23,106.633 94.982,100.507 94.707,94.382 C94.63,92.679 94.534,90.977 94.444,89.215 M143.796,31.421 L92.937,81.868 L101.757,81.868 L101.757,103.791 C105.538,100.613 110.014,99.781 114.441,98.978 C122.878,97.446 131.368,96.838 139.887,96.838 C141.191,96.838 142.497,96.853 143.802,96.88 L144.218,31.839 L143.796,31.421" id="Fill-12" fill="#E4E5E4" sketch:type="MSShapeGroup"></path>
            <path d="M144.231,29.779 L144.231,29.779 L144.218,31.839 L144.233,31.854 L144.231,29.779" id="Fill-13" fill="#E0E1DF" sketch:type="MSShapeGroup"></path>
            <path d="M144.314,112.896 C144.109,112.901 143.904,112.906 143.7,112.91 C143.904,112.906 144.109,112.901 144.314,112.896 M144.218,31.839 L143.802,96.88 C143.968,96.883 144.132,96.887 144.298,96.891 L144.233,31.854 L144.218,31.839" id="Fill-14" fill="#E0E1DF" sketch:type="MSShapeGroup"></path>
            <path d="M234.572,120.86 L255.879,142.341 C248.023,150.281 234.712,163.68 219.967,178.509 L220.036,178.509 L256.083,142.333 C256.004,142.306 245.149,131.45 234.572,120.86" id="Fill-15" fill="#73706F" sketch:type="MSShapeGroup"></path>
            <path d="M255.879,142.341 L219.907,178.509 L219.967,178.509 C234.712,163.68 248.023,150.281 255.879,142.341 M214.667,100.917 L214.667,100.917 L214.405,101.071 C214.405,101.146 214.404,101.221 214.404,101.296 L255.879,142.341 L234.572,120.86 C224.493,110.768 214.667,100.917 214.667,100.917" id="Fill-16" fill="#E4E5E4" sketch:type="MSShapeGroup"></path>
            <path d="M208.301,104.679 L182.754,119.778 C182.106,120.859 181.464,121.944 180.842,123.039 C180.424,123.773 180.15,124.7 180.146,125.539 C180.102,137.07 180.116,148.6 180.113,160.131 C180.113,160.354 180.078,160.576 180.048,160.915 C179.702,160.635 179.477,160.453 179.242,160.263 C178.718,160.878 178.166,161.446 177.59,161.973 L178.783,162.658 C178.917,162.521 179.051,162.382 179.183,162.241 C179.511,162.616 179.805,163.001 180.069,163.397 L187.685,167.772 C193.258,163.901 197.261,158.625 200.311,152.544 C205.82,141.561 207.85,129.728 208.318,117.614 C208.484,113.309 208.416,108.994 208.301,104.679 M214.404,101.296 C214.373,106.524 214.319,111.75 214.194,116.975 C213.971,126.256 212.919,135.461 210.024,144.36 C206.595,154.902 200.303,163.35 191.757,170.111 L206.374,178.509 L219.907,178.509 L255.879,142.341 L214.404,101.296" id="Fill-17" fill="#E4E5E4" sketch:type="MSShapeGroup"></path>
            <path d="M256.083,142.333 L256.083,142.333 L256.083,142.334 L256.083,142.333" id="Fill-18" fill="#73706F" sketch:type="MSShapeGroup"></path>
            <path d="M143.081,253.522 L143.069,255.425 L144.023,254.459 L143.678,254.115 L143.678,254.118 L143.081,253.522" id="Fill-19" fill="#1C1D1D" sketch:type="MSShapeGroup"></path>
            <path d="M176.059,222.009 L145.441,222.009 C145.637,224.996 145.998,227.966 146.646,230.912 C147.249,233.65 148.121,236.237 149.281,238.663 C152.418,238.985 155.405,239.478 158.183,240.116 L176.059,222.009 M191.411,170.383 C190.999,170.705 190.582,171.022 190.159,171.337 C187.541,173.283 184.746,174.991 182.047,176.829 C181.694,177.069 181.283,177.375 181.138,177.744 C181.037,178.002 180.932,178.257 180.823,178.509 L205.299,178.509 L191.411,170.383 M180.414,163.947 C181.592,165.96 182.078,168.249 182.238,170.809 C183.558,170.138 184.745,169.626 185.843,168.965 C186.356,168.655 186.857,168.335 187.346,168.004 L180.414,163.947 M177.373,162.168 C175.489,163.841 173.352,165.097 171.073,166.14 C163.807,169.464 156.061,170.513 148.184,170.75 C146.947,170.787 145.71,170.806 144.475,170.806 C144.18,170.806 143.885,170.805 143.591,170.803 L143.578,172.8 C144.093,172.807 144.607,172.811 145.122,172.811 C149.481,172.811 153.833,172.522 158.177,171.802 C165.723,170.553 172.936,168.479 178.572,162.87 L177.373,162.168" id="Fill-20" fill="#F6F4F2" sketch:type="MSShapeGroup"></path>
            <path d="M111.685,222.009 L111.489,222.009 L143.081,253.522 L143.081,253.519 L128.594,239.057 C128.635,239.051 128.673,239.046 128.714,239.04 L111.685,222.009" id="Fill-21" fill="#73706F" sketch:type="MSShapeGroup"></path>
            <path d="M135.882,222.009 L111.685,222.009 L128.714,239.04 C129.882,238.873 131.076,238.73 132.292,238.613 C133.766,235.512 134.72,232.176 135.223,228.661 C135.539,226.458 135.737,224.236 135.882,222.009 M92.33,171.881 L80.757,178.509 L100.256,178.509 C100.126,178.144 100.005,177.771 99.894,177.391 C99.757,176.925 99.219,176.495 98.764,176.216 C96.553,174.856 94.403,173.418 92.33,171.881 M99.701,167.659 L96.669,169.396 C97.449,169.821 98.255,170.209 99.088,170.555 C99.314,169.571 99.479,168.599 99.701,167.659 M107.05,163.451 L105.272,164.469 C107.82,166.162 110.555,167.298 113.362,168.278 C119.523,170.426 125.912,171.479 132.387,172.118 C136.111,172.486 139.836,172.742 143.557,172.799 L143.554,170.802 C136.717,170.75 129.915,170.115 123.184,168.806 C117.54,167.709 112.007,166.28 107.05,163.451" id="Fill-22" fill="#E4E5E4" sketch:type="MSShapeGroup"></path>
            <path d="M143.081,253.519 L143.081,253.522 L143.678,254.118 L143.081,253.519" id="Fill-23" fill="#757372" sketch:type="MSShapeGroup"></path>
            <path d="M67.462,106.516 L32.303,141.962 L32.326,141.985 L67.463,106.754 C67.462,106.675 67.462,106.595 67.462,106.516" id="Fill-24" fill="#1C1D1D" sketch:type="MSShapeGroup"></path>
            <path d="M67.463,106.754 L32.326,141.985 L32.328,141.987 L67.464,107.135 C67.463,107.008 67.463,106.881 67.463,106.754" id="Fill-25" fill="#F6F4F2" sketch:type="MSShapeGroup"></path>
            <path d="M67.464,107.135 L32.328,141.987 L68.544,178.509 L80.644,178.509 L92.26,171.829 C89.577,169.835 87.024,167.674 84.634,165.298 C76.963,157.67 72.315,148.434 70.016,137.936 C68.313,130.163 67.595,122.275 67.513,114.342 C67.488,111.94 67.472,109.538 67.464,107.135 M73.554,101.202 C73.468,102.629 73.398,104.055 73.353,105.483 C72.936,118.656 73.876,131.69 78.066,144.308 C80.527,151.721 84.097,158.509 89.687,164.085 C91.762,166.153 94.035,167.948 96.577,169.346 L99.731,167.532 C99.848,167.048 99.982,166.573 100.15,166.11 C100.648,164.731 101.451,163.461 102.182,162.022 C103.143,162.925 104.143,163.71 105.173,164.402 L106.939,163.387 C105.396,162.498 103.909,161.471 102.492,160.276 C102.287,160.456 102.082,160.637 101.684,160.987 L101.684,159.391 C101.684,148.024 101.694,136.657 101.66,125.29 C101.658,124.601 101.439,123.837 101.093,123.239 C99.504,120.48 97.801,117.786 96.217,115.024 C96.119,114.854 96.03,114.673 95.951,114.486 L73.554,101.202" id="Fill-26" fill="#F6F4F2" sketch:type="MSShapeGroup"></path>
            <path d="M73.554,101.2 L73.554,101.202 L95.951,114.486 C95.934,114.446 95.918,114.406 95.902,114.365 L73.554,101.2" id="Fill-27" fill="#DBDBDA" sketch:type="MSShapeGroup"></path>
            <path d="M92.26,171.829 L80.644,178.509 L80.757,178.509 L92.33,171.881 C92.306,171.864 92.283,171.846 92.26,171.829 M99.731,167.532 L96.577,169.346 C96.608,169.363 96.638,169.379 96.669,169.396 L99.701,167.659 C99.711,167.617 99.721,167.574 99.731,167.532 M106.939,163.387 L105.173,164.402 C105.206,164.425 105.239,164.447 105.272,164.469 L107.05,163.451 C107.013,163.429 106.976,163.408 106.939,163.387" id="Fill-28" fill="#DBDBDA" sketch:type="MSShapeGroup"></path>
            <g id="Group-55" transform="translate(33.000000, 9.000000)">
                <mask id="mask-2" sketch:name="Clip 30" fill="white">
                    <use xlink:href="#path-1"></use>
                </mask>
                <g id="Clip-30"></g>
                <path d="M95.714,230.04 C95.673,230.046 95.635,230.051 95.594,230.057 L97.844,232.303 C97.86,232.276 97.877,232.248 97.894,232.22 L95.714,230.04" id="Fill-29" fill="#555352" sketch:type="MSShapeGroup" mask="url(#mask-2)"></path>
                <path d="M99.292,229.613 C98.076,229.73 96.882,229.873 95.714,230.04 L97.894,232.22 C98.404,231.371 98.869,230.502 99.292,229.613" id="Fill-31" fill="#9B9A99" sketch:type="MSShapeGroup" mask="url(#mask-2)"></path>
                <path d="M125.564,231.205 C123.733,233.044 122.042,234.742 120.511,236.28 C120.544,236.32 120.578,236.361 120.611,236.401 L125.764,231.253 C125.697,231.237 125.631,231.221 125.564,231.205" id="Fill-32" fill="#101313" sketch:type="MSShapeGroup" mask="url(#mask-2)"></path>
                <path d="M125.549,231.202 L120.505,236.273 C120.507,236.275 120.509,236.277 120.511,236.28 C122.042,234.742 123.733,233.044 125.564,231.205 C125.559,231.204 125.554,231.203 125.549,231.202" id="Fill-33" fill="#A8A6A4" sketch:type="MSShapeGroup" mask="url(#mask-2)"></path>
                <path d="M125.183,231.116 L120.317,236.044 C120.379,236.121 120.442,236.197 120.505,236.273 L125.549,231.202 C125.427,231.173 125.305,231.144 125.183,231.116" id="Fill-34" fill="#A8A6A4" sketch:type="MSShapeGroup" mask="url(#mask-2)"></path>
                <path d="M116.281,229.663 C117.368,231.935 118.708,234.065 120.317,236.044 L125.183,231.116 C122.405,230.478 119.418,229.985 116.281,229.663" id="Fill-35" fill="#A3A09E" sketch:type="MSShapeGroup" mask="url(#mask-2)"></path>
                <path d="M114.366,135.61 L115.662,136.368 C115.667,136.367 115.672,136.365 115.678,136.364 L114.366,135.61 M110.512,133.694 L110.517,137.387 C110.592,137.379 110.667,137.371 110.742,137.363 L110.761,134.188 L110.635,133.768 L110.512,133.694 M119.433,128.159 L111.343,132.87 L111.344,133.479 L119.469,128.677 C119.459,128.504 119.447,128.332 119.433,128.159" id="Fill-36" fill="#A8A6A4" sketch:type="MSShapeGroup" mask="url(#mask-2)"></path>
                <path d="M111.322,111.555 L111.343,132.87 L119.433,128.159 C119.411,127.889 119.385,127.619 119.355,127.349 C118.94,123.493 118.356,119.646 119.781,115.851 C120.206,114.721 119.695,113.836 118.689,113.288 C118.051,112.941 117.36,112.612 116.656,112.482 C114.878,112.152 113.096,111.85 111.322,111.555" id="Fill-37" fill="#A3A09E" sketch:type="MSShapeGroup" mask="url(#mask-2)"></path>
                <path d="M110.566,133.537 L110.512,133.569 L110.512,133.694 L110.635,133.768 L110.566,133.537 M110.511,133.355 L110.511,133.412 L110.532,133.424 L110.511,133.355" id="Fill-38" fill="#9B9A99" sketch:type="MSShapeGroup" mask="url(#mask-2)"></path>
                <path d="M111.343,132.87 L110.511,133.355 L111.035,133.661 L111.344,133.479 L111.343,132.87 M107.8,110.969 C105.014,111.413 102.336,111.714 99.719,112.29 C96.341,113.035 95.842,114.313 96.457,117.649 C96.886,119.975 96.739,122.422 96.712,124.814 C96.71,124.968 96.706,125.122 96.701,125.276 L110.462,133.383 L110.511,133.355 L110.651,111.444 C109.697,111.285 108.746,111.128 107.8,110.969" id="Fill-39" fill="#9B9A99" sketch:type="MSShapeGroup" mask="url(#mask-2)"></path>
                <path d="M110.651,111.444 L110.511,133.355 L111.343,132.87 L111.322,111.555 C111.098,111.518 110.875,111.481 110.651,111.444" id="Fill-40" fill="#999898" sketch:type="MSShapeGroup" mask="url(#mask-2)"></path>
                <path d="M119.469,128.677 L111.344,133.479 L111.344,133.842 L114.366,135.61 L115.678,136.364 C115.757,136.34 115.836,136.317 115.916,136.293 C117.141,135.921 117.917,135.14 118.505,134.043 C119.427,132.323 119.576,130.513 119.469,128.677" id="Fill-41" fill="#9B9A99" sketch:type="MSShapeGroup" mask="url(#mask-2)"></path>
                <path d="M111.344,133.479 L111.035,133.661 L111.344,133.842 L111.344,133.479" id="Fill-42" fill="#949495" sketch:type="MSShapeGroup" mask="url(#mask-2)"></path>
                <path d="M110.635,133.768 L110.761,134.188 L110.742,137.363 C112.383,137.181 114.024,136.85 115.662,136.368 L114.366,135.61 L111.344,133.874 L111.344,134.188 L110.635,133.768" id="Fill-43" fill="#A3A09E" sketch:type="MSShapeGroup" mask="url(#mask-2)"></path>
                <path d="M110.511,133.355 L110.511,133.355 L110.532,133.424 L110.646,133.491 L110.566,133.537 L110.635,133.768 L111.344,134.188 L111.344,133.874 L111.005,133.679 L111.035,133.661 L110.511,133.355" id="Fill-44" fill="#959594" sketch:type="MSShapeGroup" mask="url(#mask-2)"></path>
                <path d="M111.344,133.842 L111.344,133.874 L114.366,135.61 L111.344,133.842" id="Fill-45" fill="#959594" sketch:type="MSShapeGroup" mask="url(#mask-2)"></path>
                <path d="M111.035,133.661 L111.005,133.679 L111.344,133.874 L111.344,133.842 L111.035,133.661" id="Fill-46" fill="#909091" sketch:type="MSShapeGroup" mask="url(#mask-2)"></path>
                <path d="M110.511,133.355 L110.462,133.383 L110.511,133.412 L110.511,133.355" id="Fill-47" fill="#949495" sketch:type="MSShapeGroup" mask="url(#mask-2)"></path>
                <path d="M110.404,133.63 L104.042,137.273 C105.281,137.443 106.519,137.528 107.756,137.528 C108.677,137.528 109.597,137.481 110.517,137.387 L110.512,133.694 L110.404,133.63" id="Fill-48" fill="#9B9A99" sketch:type="MSShapeGroup" mask="url(#mask-2)"></path>
                <path d="M110.512,133.569 L110.404,133.63 L110.512,133.694 L110.512,133.569" id="Fill-49" fill="#949495" sketch:type="MSShapeGroup" mask="url(#mask-2)"></path>
                <path d="M96.692,125.498 C96.613,127.265 96.336,129.032 96.368,130.796 C96.418,133.656 97.999,135.873 100.337,136.513 C101.48,136.825 102.623,137.066 103.765,137.234 L110.221,133.522 L96.692,125.498" id="Fill-50" fill="#A3A09E" sketch:type="MSShapeGroup" mask="url(#mask-2)"></path>
                <path d="M110.511,133.412 L110.512,133.569 L110.566,133.537 L110.532,133.424 L110.511,133.412 M96.701,125.276 C96.698,125.35 96.695,125.424 96.692,125.498 L110.221,133.522 L110.462,133.383 L96.701,125.276" id="Fill-51" fill="#959594" sketch:type="MSShapeGroup" mask="url(#mask-2)"></path>
                <path d="M110.532,133.424 L110.566,133.537 L110.646,133.491 L110.532,133.424" id="Fill-52" fill="#919190" sketch:type="MSShapeGroup" mask="url(#mask-2)"></path>
                <path d="M110.221,133.522 L103.765,137.234 C103.858,137.248 103.95,137.261 104.042,137.273 L110.404,133.63 L110.221,133.522" id="Fill-53" fill="#959594" sketch:type="MSShapeGroup" mask="url(#mask-2)"></path>
                <path d="M110.462,133.383 L110.221,133.522 L110.404,133.63 L110.512,133.569 L110.511,133.412 L110.462,133.383" id="Fill-54" fill="#909091" sketch:type="MSShapeGroup" mask="url(#mask-2)"></path>
            </g>
            <g id="Group-58" transform="translate(67.000000, 82.000000)">
                <mask id="mask-4" sketch:name="Clip 57" fill="white">
                    <use xlink:href="#path-3"></use>
                </mask>
                <g id="Clip-57"></g>
                <path d="M80.11,-72.908 L-25.223,12.425 L-33.896,61.734 L77.284,172.72 L189.504,60.592 L191.569,21.925 L80.11,-72.908" id="Fill-56" sketch:type="MSShapeGroup" mask="url(#mask-4)"></path>
            </g>
            <g id="Group-61" transform="translate(196.000000, 82.000000)">
                <mask id="mask-6" sketch:name="Clip 60" fill="white">
                    <use xlink:href="#path-5"></use>
                </mask>
                <g id="Clip-60"></g>
                <path d="M-48.89,-72.908 L-154.223,12.425 L-162.896,61.734 L-51.716,172.72 L60.504,60.592 L62.569,21.925 L-48.89,-72.908" id="Fill-59" sketch:type="MSShapeGroup" mask="url(#mask-6)"></path>
            </g>
            <g id="Group-64" transform="translate(144.000000, 101.000000)">
                <mask id="mask-8" sketch:name="Clip 63" fill="white">
                    <use xlink:href="#path-7"></use>
                </mask>
                <g id="Clip-63"></g>
                <path d="M3.11,-91.908 L-102.223,-6.575 L-110.896,42.734 L0.284,153.72 L112.504,41.592 L114.569,2.925 L3.11,-91.908" id="Fill-62" sketch:type="MSShapeGroup" mask="url(#mask-8)"></path>
            </g>
            <g id="Group-67" transform="translate(67.000000, 82.000000)">
                <mask id="mask-10" sketch:name="Clip 66" fill="white">
                    <use xlink:href="#path-9"></use>
                </mask>
                <g id="Clip-66"></g>
                <path d="M80.11,-72.908 L-25.223,12.425 L-33.896,61.734 L77.284,172.72 L189.504,60.592 L191.569,21.925 L80.11,-72.908" id="Fill-65" sketch:type="MSShapeGroup" mask="url(#mask-10)"></path>
            </g>
            <g id="Group-70" transform="translate(195.000000, 82.000000)">
                <mask id="mask-12" sketch:name="Clip 69" fill="white">
                    <use xlink:href="#path-11"></use>
                </mask>
                <g id="Clip-69"></g>
                <path d="M-47.89,-72.908 L-153.223,12.425 L-161.896,61.734 L-50.716,172.72 L61.504,60.592 L63.569,21.925 L-47.89,-72.908" id="Fill-68" sketch:type="MSShapeGroup" mask="url(#mask-12)"></path>
            </g>
            <g id="Group-73" transform="translate(144.000000, 82.000000)">
                <mask id="mask-14" sketch:name="Clip 72" fill="white">
                    <use xlink:href="#path-13"></use>
                </mask>
                <g id="Clip-72"></g>
                <path d="M3.11,-72.908 L-102.223,12.425 L-110.896,61.734 L0.284,172.72 L112.504,60.592 L114.569,21.925 L3.11,-72.908" id="Fill-71" sketch:type="MSShapeGroup" mask="url(#mask-14)"></path>
            </g>
            <g id="Group-76" transform="translate(73.000000, 82.000000)">
                <mask id="mask-16" sketch:name="Clip 75" fill="white">
                    <use xlink:href="#path-15"></use>
                </mask>
                <g id="Clip-75"></g>
                <path d="M74.11,-72.908 L-31.223,12.425 L-39.896,61.734 L71.284,172.72 L183.504,60.592 L185.569,21.925 L74.11,-72.908" id="Fill-74" sketch:type="MSShapeGroup" mask="url(#mask-16)"></path>
            </g>
            <g id="Group-79" transform="translate(73.000000, 82.000000)">
                <mask id="mask-18" sketch:name="Clip 78" fill="white">
                    <use xlink:href="#path-17"></use>
                </mask>
                <g id="Clip-78"></g>
                <path d="M74.11,-72.908 L-31.223,12.425 L-39.896,61.734 L71.284,172.72 L183.504,60.592 L185.569,21.925 L74.11,-72.908" id="Fill-77" sketch:type="MSShapeGroup" mask="url(#mask-18)"></path>
            </g>
            <g id="Group-82" transform="translate(73.000000, 82.000000)">
                <mask id="mask-20" sketch:name="Clip 81" fill="white">
                    <use xlink:href="#path-19"></use>
                </mask>
                <g id="Clip-81"></g>
                <path d="M74.11,-72.908 L-31.223,12.425 L-39.896,61.734 L71.284,172.72 L183.504,60.592 L185.569,21.925 L74.11,-72.908" id="Fill-80" sketch:type="MSShapeGroup" mask="url(#mask-20)"></path>
            </g>
            <g id="Group-85" transform="translate(144.000000, 97.000000)">
                <mask id="mask-22" sketch:name="Clip 84" fill="white">
                    <use xlink:href="#path-21"></use>
                </mask>
                <g id="Clip-84"></g>
                <path d="M3.11,-87.908 L-102.223,-2.575 L-110.896,46.734 L0.284,157.72 L112.504,45.592 L114.569,6.925 L3.11,-87.908" id="Fill-83" sketch:type="MSShapeGroup" mask="url(#mask-22)"></path>
            </g>
            <g id="Group-88" transform="translate(214.000000, 101.000000)">
                <mask id="mask-24" sketch:name="Clip 87" fill="white">
                    <use xlink:href="#path-23"></use>
                </mask>
                <g id="Clip-87"></g>
                <path d="M-66.89,-91.908 L-172.223,-6.575 L-180.896,42.734 L-69.716,153.72 L42.504,41.592 L44.569,2.925 L-66.89,-91.908" id="Fill-86" sketch:type="MSShapeGroup" mask="url(#mask-24)"></path>
            </g>
            <g id="Group-91" transform="translate(156.000000, 101.000000)">
                <mask id="mask-26" sketch:name="Clip 90" fill="white">
                    <use xlink:href="#path-25"></use>
                </mask>
                <g id="Clip-90"></g>
                <path d="M-8.89,-91.908 L-114.223,-6.575 L-122.896,42.734 L-11.716,153.72 L100.504,41.592 L102.569,2.925 L-8.89,-91.908" id="Fill-89" sketch:type="MSShapeGroup" mask="url(#mask-26)"></path>
            </g>
            <g id="Group-94" transform="translate(144.000000, 149.000000)">
                <mask id="mask-28" sketch:name="Clip 93" fill="white">
                    <use xlink:href="#path-27"></use>
                </mask>
                <g id="Clip-93"></g>
                <path d="M3.11,-139.908 L-102.223,-54.575 L-110.896,-5.266 L0.284,105.72 L112.504,-6.408 L114.569,-45.075 L3.11,-139.908" id="Fill-92" sketch:type="MSShapeGroup" mask="url(#mask-28)"></path>
            </g>
            <g id="Group-97" transform="translate(92.000000, 150.000000)">
                <mask id="mask-30" sketch:name="Clip 96" fill="white">
                    <use xlink:href="#path-29"></use>
                </mask>
                <g id="Clip-96"></g>
                <path d="M55.11,-140.908 L-50.223,-55.575 L-58.896,-6.266 L52.284,104.72 L164.504,-7.408 L166.569,-46.075 L55.11,-140.908" id="Fill-95" sketch:type="MSShapeGroup" mask="url(#mask-30)"></path>
            </g>
            <g id="Group-100" transform="translate(144.000000, 176.000000)">
                <mask id="mask-32" sketch:name="Clip 99" fill="white">
                    <use xlink:href="#path-31"></use>
                </mask>
                <g id="Clip-99"></g>
                <path d="M3.11,-166.908 L-102.223,-81.575 L-110.896,-32.266 L0.284,78.72 L112.504,-33.408 L114.569,-72.075 L3.11,-166.908" id="Fill-98" sketch:type="MSShapeGroup" mask="url(#mask-32)"></path>
            </g>
            <g id="Group-103" transform="translate(67.000000, 101.000000)">
                <mask id="mask-34" sketch:name="Clip 102" fill="white">
                    <use xlink:href="#path-33"></use>
                </mask>
                <g id="Clip-102"></g>
                <path d="M80.11,-91.908 L-25.223,-6.575 L-33.896,42.734 L77.284,153.72 L189.504,41.592 L191.569,2.925 L80.11,-91.908" id="Fill-101" sketch:type="MSShapeGroup" mask="url(#mask-34)"></path>
            </g>
            <g id="Group-106" transform="translate(67.000000, 101.000000)">
                <mask id="mask-36" sketch:name="Clip 105" fill="white">
                    <use xlink:href="#path-35"></use>
                </mask>
                <g id="Clip-105"></g>
                <path d="M80.11,-91.908 L-25.223,-6.575 L-33.896,42.734 L77.284,153.72 L189.504,41.592 L191.569,2.925 L80.11,-91.908" id="Fill-104" sketch:type="MSShapeGroup" mask="url(#mask-36)"></path>
            </g>
            <g id="Group-109" transform="translate(67.000000, 101.000000)">
                <mask id="mask-38" sketch:name="Clip 108" fill="white">
                    <use xlink:href="#path-37"></use>
                </mask>
                <g id="Clip-108"></g>
                <path d="M80.11,-91.908 L-25.223,-6.575 L-33.896,42.734 L77.284,153.72 L189.504,41.592 L191.569,2.925 L80.11,-91.908" id="Fill-107" sketch:type="MSShapeGroup" mask="url(#mask-38)"></path>
            </g>
            <g id="Group-112" transform="translate(73.000000, 101.000000)">
                <mask id="mask-40" sketch:name="Clip 111" fill="white">
                    <use xlink:href="#path-39"></use>
                </mask>
                <g id="Clip-111"></g>
                <path d="M74.11,-91.908 L-31.223,-6.575 L-39.896,42.734 L71.284,153.72 L183.504,41.592 L185.569,2.925 L74.11,-91.908" id="Fill-110" sketch:type="MSShapeGroup" mask="url(#mask-40)"></path>
            </g>
            <g id="Group-115" transform="translate(73.000000, 101.000000)">
                <mask id="mask-42" sketch:name="Clip 114" fill="white">
                    <use xlink:href="#path-41"></use>
                </mask>
                <g id="Clip-114"></g>
                <path d="M74.11,-91.908 L-31.223,-6.575 L-39.896,42.734 L71.284,153.72 L183.504,41.592 L185.569,2.925 L74.11,-91.908" id="Fill-113" sketch:type="MSShapeGroup" mask="url(#mask-42)"></path>
            </g>
            <g id="Group-118" transform="translate(73.000000, 101.000000)">
                <mask id="mask-44" sketch:name="Clip 117" fill="white">
                    <use xlink:href="#path-43"></use>
                </mask>
                <g id="Clip-117"></g>
                <path d="M74.11,-91.908 L-31.223,-6.575 L-39.896,42.734 L71.284,153.72 L183.504,41.592 L185.569,2.925 L74.11,-91.908" id="Fill-116" sketch:type="MSShapeGroup" mask="url(#mask-44)"></path>
            </g>
            <g id="Group-121" transform="translate(92.000000, 150.000000)">
                <mask id="mask-46" sketch:name="Clip 120" fill="white">
                    <use xlink:href="#path-45"></use>
                </mask>
                <g id="Clip-120"></g>
                <path d="M55.11,-140.908 L-50.223,-55.575 L-58.896,-6.266 L52.284,104.72 L164.504,-7.408 L166.569,-46.075 L55.11,-140.908" id="Fill-119" sketch:type="MSShapeGroup" mask="url(#mask-46)"></path>
            </g>
            <g id="Group-124" transform="translate(144.000000, 222.000000)">
                <mask id="mask-48" sketch:name="Clip 123" fill="white">
                    <use xlink:href="#path-47"></use>
                </mask>
                <g id="Clip-123"></g>
                <path d="M3.11,-212.908 L-102.223,-127.575 L-110.896,-78.266 L0.284,32.72 L112.504,-79.408 L114.569,-118.075 L3.11,-212.908" id="Fill-122" sketch:type="MSShapeGroup" mask="url(#mask-48)"></path>
            </g>
            <g id="Group-127" transform="translate(132.000000, 222.000000)">
                <mask id="mask-50" sketch:name="Clip 126" fill="white">
                    <use xlink:href="#path-49"></use>
                </mask>
                <g id="Clip-126"></g>
                <path d="M15.11,-212.908 L-90.223,-127.575 L-98.896,-78.266 L12.284,32.72 L124.504,-79.408 L126.569,-118.075 L15.11,-212.908" id="Fill-125" sketch:type="MSShapeGroup" mask="url(#mask-50)"></path>
            </g>
            <g id="Group-130" transform="translate(143.000000, 222.000000)">
                <mask id="mask-52" sketch:name="Clip 129" fill="white">
                    <use xlink:href="#path-51"></use>
                </mask>
                <g id="Clip-129"></g>
                <path d="M4.11,-212.908 L-101.223,-127.575 L-109.896,-78.266 L1.284,32.72 L113.504,-79.408 L115.569,-118.075 L4.11,-212.908" id="Fill-128" sketch:type="MSShapeGroup" mask="url(#mask-52)"></path>
            </g>
            <g id="Group-133" transform="translate(144.000000, 245.000000)">
                <mask id="mask-54" sketch:name="Clip 132" fill="white">
                    <use xlink:href="#path-53"></use>
                </mask>
                <g id="Clip-132"></g>
                <path d="M3.11,-235.908 L-102.223,-150.575 L-110.896,-101.266 L0.284,9.72 L112.504,-102.408 L114.569,-141.075 L3.11,-235.908" id="Fill-131" sketch:type="MSShapeGroup" mask="url(#mask-54)"></path>
            </g>
            <g id="Group-136" transform="translate(144.000000, 245.000000)">
                <mask id="mask-56" sketch:name="Clip 135" fill="white">
                    <use xlink:href="#path-55"></use>
                </mask>
                <g id="Clip-135"></g>
                <path d="M3.11,-235.908 L-102.223,-150.575 L-110.896,-101.266 L0.284,9.72 L112.504,-102.408 L114.569,-141.075 L3.11,-235.908" id="Fill-134" sketch:type="MSShapeGroup" mask="url(#mask-56)"></path>
            </g>
            <g id="Group-139" transform="translate(144.000000, 245.000000)">
                <mask id="mask-58" sketch:name="Clip 138" fill="white">
                    <use xlink:href="#path-57"></use>
                </mask>
                <g id="Clip-138"></g>
                <path d="M3.11,-235.908 L-102.223,-150.575 L-110.896,-101.266 L0.284,9.72 L112.504,-102.408 L114.569,-141.075 L3.11,-235.908" id="Fill-137" sketch:type="MSShapeGroup" mask="url(#mask-58)"></path>
            </g>
            <g id="Group-142" transform="translate(144.000000, 254.000000)">
                <mask id="mask-60" sketch:name="Clip 141" fill="white">
                    <use xlink:href="#path-59"></use>
                </mask>
                <g id="Clip-141"></g>
                <path d="M3.11,-244.908 L-102.223,-159.575 L-110.896,-110.266 L0.284,0.72 L112.504,-111.408 L114.569,-150.075 L3.11,-244.908" id="Fill-140" sketch:type="MSShapeGroup" mask="url(#mask-60)"></path>
            </g>
            <g id="Group-145" transform="translate(144.000000, 238.000000)">
                <mask id="mask-62" sketch:name="Clip 144" fill="white">
                    <use xlink:href="#path-61"></use>
                </mask>
                <g id="Clip-144"></g>
                <path d="M3.11,-228.908 L-102.223,-143.575 L-110.896,-94.266 L0.284,16.72 L112.504,-95.408 L114.569,-134.075 L3.11,-228.908" id="Fill-143" sketch:type="MSShapeGroup" mask="url(#mask-62)"></path>
            </g>
            <g id="Group-148" transform="translate(131.000000, 241.000000)">
                <mask id="mask-64" sketch:name="Clip 147" fill="white">
                    <use xlink:href="#path-63"></use>
                </mask>
                <g id="Clip-147"></g>
                <path d="M16.11,-231.908 L-89.223,-146.575 L-97.896,-97.266 L13.284,13.72 L125.504,-98.408 L127.569,-137.075 L16.11,-231.908" id="Fill-146" sketch:type="MSShapeGroup" mask="url(#mask-64)"></path>
            </g>
            <g id="Group-151" transform="translate(131.000000, 238.000000)">
                <mask id="mask-66" sketch:name="Clip 150" fill="white">
                    <use xlink:href="#path-65"></use>
                </mask>
                <g id="Clip-150"></g>
                <path d="M16.11,-228.908 L-89.223,-143.575 L-97.896,-94.266 L13.284,16.72 L125.504,-95.408 L127.569,-134.075 L16.11,-228.908" id="Fill-149" sketch:type="MSShapeGroup" mask="url(#mask-66)"></path>
            </g>
            <g id="Group-154" transform="translate(143.000000, 253.000000)">
                <mask id="mask-68" sketch:name="Clip 153" fill="white">
                    <use xlink:href="#path-67"></use>
                </mask>
                <g id="Clip-153"></g>
                <path d="M4.11,-243.908 L-101.223,-158.575 L-109.896,-109.266 L1.284,1.72 L113.504,-110.408 L115.569,-149.075 L4.11,-243.908" id="Fill-152" sketch:type="MSShapeGroup" mask="url(#mask-68)"></path>
            </g>
            <g id="Group-157" transform="translate(143.000000, 238.000000)">
                <mask id="mask-70" sketch:name="Clip 156" fill="white">
                    <use xlink:href="#path-69"></use>
                </mask>
                <g id="Clip-156"></g>
                <path d="M4.11,-228.908 L-101.223,-143.575 L-109.896,-94.266 L1.284,16.72 L113.504,-95.408 L115.569,-134.075 L4.11,-228.908" id="Fill-155" sketch:type="MSShapeGroup" mask="url(#mask-70)"></path>
            </g>
            <g id="Group-160" transform="translate(144.000000, 131.000000)">
                <mask id="mask-72" sketch:name="Clip 159" fill="white">
                    <use xlink:href="#path-71"></use>
                </mask>
                <g id="Clip-159"></g>
                <path d="M3.11,-121.908 L-102.223,-36.575 L-110.896,12.734 L0.284,123.72 L112.504,11.592 L114.569,-27.075 L3.11,-121.908" id="Fill-158" sketch:type="MSShapeGroup" mask="url(#mask-72)"></path>
            </g>
            <g id="Group-163" transform="translate(144.000000, 118.000000)">
                <mask id="mask-74" sketch:name="Clip 162" fill="white">
                    <use xlink:href="#path-73"></use>
                </mask>
                <g id="Clip-162"></g>
                <path d="M3.11,-108.908 L-102.223,-23.575 L-110.896,25.734 L0.284,136.72 L112.504,24.592 L114.569,-14.075 L3.11,-108.908" id="Fill-161" sketch:type="MSShapeGroup" mask="url(#mask-74)"></path>
            </g>
            <g id="Group-166" transform="translate(123.000000, 118.000000)">
                <mask id="mask-76" sketch:name="Clip 165" fill="white">
                    <use xlink:href="#path-75"></use>
                </mask>
                <g id="Clip-165"></g>
                <path d="M24.11,-108.908 L-81.223,-23.575 L-89.896,25.734 L21.284,136.72 L133.504,24.592 L135.569,-14.075 L24.11,-108.908" id="Fill-164" sketch:type="MSShapeGroup" mask="url(#mask-76)"></path>
            </g>
            <g id="Group-169" transform="translate(144.000000, 118.000000)">
                <mask id="mask-78" sketch:name="Clip 168" fill="white">
                    <use xlink:href="#path-77"></use>
                </mask>
                <g id="Clip-168"></g>
                <path d="M3.11,-108.908 L-102.223,-23.575 L-110.896,25.734 L0.284,136.72 L112.504,24.592 L114.569,-14.075 L3.11,-108.908" id="Fill-167" sketch:type="MSShapeGroup" mask="url(#mask-78)"></path>
            </g>
            <g id="Group-172" transform="translate(149.000000, 132.000000)">
                <mask id="mask-80" sketch:name="Clip 171" fill="white">
                    <use xlink:href="#path-79"></use>
                </mask>
                <g id="Clip-171"></g>
                <path d="M-1.89,-122.908 L-107.223,-37.575 L-115.896,11.734 L-4.716,122.72 L107.504,10.592 L109.569,-28.075 L-1.89,-122.908" id="Fill-170" sketch:type="MSShapeGroup" mask="url(#mask-80)"></path>
            </g>
            <g id="Group-175" transform="translate(144.000000, 145.000000)">
                <mask id="mask-82" sketch:name="Clip 174" fill="white">
                    <use xlink:href="#path-81"></use>
                </mask>
                <g id="Clip-174"></g>
                <path d="M3.11,-135.908 L-102.223,-50.575 L-110.896,-1.266 L0.284,109.72 L112.504,-2.408 L114.569,-41.075 L3.11,-135.908" id="Fill-173" sketch:type="MSShapeGroup" mask="url(#mask-82)"></path>
            </g>
            <g id="Group-178" transform="translate(130.000000, 146.000000)">
                <mask id="mask-84" sketch:name="Clip 177" fill="white">
                    <use xlink:href="#path-83"></use>
                </mask>
                <g id="Clip-177"></g>
                <path d="M17.11,-136.908 L-88.223,-51.575 L-96.896,-2.266 L14.284,108.72 L126.504,-3.408 L128.569,-42.075 L17.11,-136.908" id="Fill-176" sketch:type="MSShapeGroup" mask="url(#mask-84)"></path>
            </g>
            <g id="Group-181" transform="translate(122.000000, 131.000000)">
                <mask id="mask-86" sketch:name="Clip 180" fill="white">
                    <use xlink:href="#path-85"></use>
                </mask>
                <g id="Clip-180"></g>
                <path d="M25.11,-121.908 L-80.223,-36.575 L-88.896,12.734 L22.284,123.72 L134.504,11.592 L136.569,-27.075 L25.11,-121.908" id="Fill-179" sketch:type="MSShapeGroup" mask="url(#mask-86)"></path>
            </g>
            <g id="Group-184" transform="translate(123.000000, 130.000000)">
                <mask id="mask-88" sketch:name="Clip 183" fill="white">
                    <use xlink:href="#path-87"></use>
                </mask>
                <g id="Clip-183"></g>
                <path d="M24.11,-120.908 L-81.223,-35.575 L-89.896,13.734 L21.284,124.72 L133.504,12.592 L135.569,-26.075 L24.11,-120.908" id="Fill-182" sketch:type="MSShapeGroup" mask="url(#mask-88)"></path>
            </g>
            <g id="Group-187" transform="translate(130.000000, 146.000000)">
                <mask id="mask-90" sketch:name="Clip 186" fill="white">
                    <use xlink:href="#path-89"></use>
                </mask>
                <g id="Clip-186"></g>
                <path d="M17.11,-136.908 L-88.223,-51.575 L-96.896,-2.266 L14.284,108.72 L126.504,-3.408 L128.569,-42.075 L17.11,-136.908" id="Fill-185" sketch:type="MSShapeGroup" mask="url(#mask-90)"></path>
            </g>
            <g id="Group-195" transform="translate(33.000000, 9.000000)">
                <mask id="mask-92" sketch:name="Clip 189" fill="white">
                    <use xlink:href="#path-91"></use>
                </mask>
                <g id="Clip-189"></g>
                <path d="M111.3,89.484 L111.314,103.896 C115.042,103.807 118.767,103.577 122.486,103.221 C122.644,103.206 122.802,103.191 122.96,103.175 C128.075,102.67 133.177,101.986 138.037,100.207 C139.389,99.712 140.696,98.964 141.853,98.102 C142.372,97.715 142.62,97.238 142.623,96.744 C142.626,96.236 142.369,95.71 141.881,95.25 C141.354,94.754 140.746,94.269 140.084,94.006 C138.348,93.314 136.598,92.604 134.792,92.155 C127.086,90.237 119.233,89.696 111.3,89.484" id="Fill-188" fill="#A3A09E" sketch:type="MSShapeGroup" mask="url(#mask-92)"></path>
                <path d="M107.741,89.407 C98.7,89.561 89.598,89.895 80.718,92.177 C78.387,92.776 76.112,93.791 73.994,94.95 C73.213,95.377 72.834,95.982 72.833,96.609 C72.831,97.246 73.218,97.906 73.967,98.427 C75.055,99.182 76.289,99.8 77.543,100.233 C84.56,102.65 91.883,103.23 99.217,103.679 C99.404,103.691 99.59,103.702 99.776,103.712 C102.446,103.865 105.113,103.939 107.78,103.939 L107.793,103.939 L107.817,103.939 C108.778,103.939 109.739,103.929 110.7,103.91 L110.792,89.47 C109.776,89.445 108.759,89.424 107.741,89.407" id="Fill-190" fill="#9B9A99" sketch:type="MSShapeGroup" mask="url(#mask-92)"></path>
                <path d="M110.792,89.47 L110.7,103.91 C110.904,103.906 111.109,103.901 111.314,103.896 L111.3,89.484 C111.131,89.479 110.961,89.475 110.792,89.47" id="Fill-191" fill="#999898" sketch:type="MSShapeGroup" mask="url(#mask-92)"></path>
                <path d="M106.329,191.63 C104.633,191.211 102.939,190.781 101.24,190.375 C93.76,188.586 86.697,185.855 80.563,181.094 C76.598,178.017 73.499,174.294 72.056,169.364 C71.917,168.889 71.367,168.451 70.903,168.166 C65.699,164.969 60.827,161.352 56.485,157.04 C48.657,149.268 43.914,139.856 41.568,129.159 C39.831,121.238 39.098,113.2 39.014,105.117 C38.899,94.122 38.985,83.126 38.985,72.026 L73.957,72.026 L73.957,94.366 C77.816,91.127 82.383,90.279 86.899,89.461 C99.439,87.188 112.092,86.912 124.786,87.637 C131.95,88.046 139.064,88.808 146.011,90.695 C147.292,91.044 148.596,91.425 149.769,92.024 C151.206,92.759 152.518,93.739 153.83,94.579 L153.83,72.001 L188.987,72.001 C188.987,72.43 188.99,72.869 188.987,73.309 C188.903,84.806 188.964,96.307 188.688,107.799 C188.461,117.257 187.387,126.637 184.433,135.705 C180.719,147.106 173.715,156.104 164.162,163.194 C161.491,165.177 158.64,166.918 155.885,168.79 C155.526,169.035 155.105,169.347 154.958,169.723 C152.649,175.612 148.321,179.726 143.158,183.072 C137.113,186.989 130.455,189.408 123.433,190.906 C122.661,191.07 121.943,191.485 120.8,191.944 C121.544,192.446 122.004,192.855 122.54,193.1 C124.28,193.894 124.657,194.535 123.918,196.292 C123.494,197.302 122.874,198.311 122.1,199.077 C119.383,201.772 118.278,204.975 118.32,208.772 C118.375,213.865 118.663,218.916 119.762,223.901 C121.292,230.837 124.515,236.821 129.744,241.689 C130.413,242.312 131.035,242.994 131.624,243.694 C133.005,245.335 133.075,246.651 131.885,248.463 C129.805,251.627 126.854,253.672 123.281,254.745 C115.716,257.017 108.245,256.932 101.033,253.384 C98.751,252.261 96.931,250.546 95.556,248.39 C94.418,246.605 94.446,245.321 95.832,243.73 C97.034,242.349 98.362,241.076 99.622,239.745 C104.461,234.638 107.125,228.454 108.106,221.607 C108.747,217.134 108.914,212.584 109.125,208.06 C109.275,204.855 108.183,202.024 105.89,199.687 C104.755,198.531 103.695,197.324 103.324,195.635 C103.056,194.42 103.474,193.734 104.535,193.254 C105.184,192.961 105.796,192.585 106.424,192.246 C106.392,192.041 106.361,191.835 106.329,191.63 L106.329,191.63 Z M73.883,152.647 L73.883,151.021 C73.883,139.439 73.893,127.856 73.858,116.273 C73.856,115.571 73.632,114.793 73.28,114.183 C71.658,111.371 69.92,108.626 68.303,105.812 C67.912,105.131 67.659,104.285 67.619,103.501 C67.296,97.262 67.043,91.019 66.763,84.777 C66.685,83.042 66.587,81.308 66.495,79.513 L46.124,79.513 C46.084,79.747 46.031,79.943 46.017,80.142 C45.657,85.457 45.142,90.768 44.973,96.09 C44.549,109.512 45.507,122.794 49.782,135.652 C52.294,143.206 55.937,150.122 61.641,155.804 C64.431,158.583 67.574,160.876 71.233,162.398 C71.594,160.832 71.801,159.294 72.317,157.868 C72.825,156.462 73.644,155.169 74.391,153.702 C77.823,156.926 81.736,158.662 85.799,160.077 C92.085,162.266 98.605,163.339 105.212,163.99 C113.999,164.857 122.783,165.115 131.528,163.669 C139.509,162.349 147.125,160.127 152.963,153.926 C155.099,156.365 155.869,159.28 156.08,162.656 C157.427,161.973 158.638,161.451 159.758,160.777 C166.441,156.756 171.077,150.904 174.522,144.044 C180.143,132.852 182.215,120.795 182.692,108.451 C182.956,101.637 182.643,94.797 182.468,87.972 C182.396,85.159 182.005,82.354 181.76,79.558 L161.312,79.558 C161.274,79.834 161.237,79.998 161.23,80.163 C160.885,88.069 160.55,95.976 160.18,103.881 C160.155,104.43 159.975,105.027 159.697,105.502 C158.035,108.338 156.28,111.122 154.655,113.979 C154.229,114.727 153.949,115.672 153.945,116.527 C153.9,128.276 153.915,140.026 153.912,151.775 C153.912,152.002 153.875,152.229 153.846,152.575 C153.491,152.289 153.262,152.103 153.023,151.91 C150.691,154.64 147.821,156.466 144.687,157.898 C137.273,161.286 129.369,162.355 121.331,162.596 C112.765,162.853 104.238,162.25 95.821,160.616 C88.223,159.14 80.823,157.078 74.707,151.923 C74.497,152.107 74.289,152.29 73.883,152.647 L73.883,152.647 Z M113.736,88.879 C104.511,89.036 95.222,89.376 86.162,91.702 C83.784,92.312 81.461,93.346 79.301,94.527 C77.694,95.406 77.757,97.017 79.273,98.07 C80.383,98.84 81.642,99.47 82.922,99.91 C90.082,102.374 97.554,102.965 105.039,103.423 C113.127,103.917 121.207,103.703 129.266,102.909 C134.486,102.394 139.691,101.697 144.65,99.884 C146.03,99.38 147.364,98.617 148.544,97.739 C149.62,96.939 149.554,95.756 148.573,94.833 C148.035,94.327 147.415,93.834 146.739,93.565 C144.968,92.861 143.183,92.137 141.338,91.679 C132.301,89.433 123.066,89.041 113.736,88.879 L113.736,88.879 Z" id="Fill-192" fill="#9ABD3D" sketch:type="MSShapeGroup" mask="url(#mask-92)"></path>
                <path d="M89.881,232.793 C88.3,233.689 86.626,234.456 85.164,235.516 C83.658,236.609 82.193,237.849 81.004,239.27 C78.335,242.459 78.343,246.304 80.848,249.632 C83.399,253.021 86.981,254.986 90.812,256.489 C99.679,259.968 108.93,260.877 118.366,260.314 C124.592,259.942 130.674,258.832 136.491,256.513 C139.774,255.205 142.851,253.538 145.361,250.978 C149.301,246.958 149.423,241.97 145.33,238.112 C143.372,236.267 140.89,234.977 138.634,233.454 C138.269,233.207 137.842,233.054 137.524,232.628 C139.043,233.147 140.578,233.623 142.078,234.191 C146.887,236.013 151.404,238.339 155.133,241.972 C158.033,244.798 159.499,248.187 159.824,252.29 C160.328,258.634 161.398,264.913 163.04,271.084 C164.212,275.485 166.76,279.028 169.753,282.325 C171.786,284.565 173.777,286.844 175.838,289.057 C180.989,294.589 181.471,300.826 178.719,307.579 C176.216,313.721 171.867,318.358 166.647,322.249 C159.074,327.895 150.501,331.397 141.431,333.779 C129.626,336.879 117.615,337.829 105.469,336.941 C91.941,335.952 78.947,332.913 66.994,326.242 C60.862,322.819 55.441,318.541 51.463,312.641 C49.048,309.058 47.573,305.145 47.157,300.813 C46.791,296.997 47.989,293.691 50.315,290.799 C52.516,288.063 54.794,285.369 57.245,282.86 C61.934,278.059 64.568,272.313 65.561,265.761 C66.35,260.558 67.057,255.342 67.771,250.128 C68.103,247.706 69.135,245.611 70.644,243.736 C74.023,239.532 78.56,236.979 83.422,234.938 C85.511,234.061 87.676,233.365 89.807,232.587 L89.881,232.793" id="Fill-193" fill="#505252" sketch:type="MSShapeGroup" mask="url(#mask-92)"></path>
                <path d="M113.741,88.907 C122.885,89.066 131.935,89.451 140.791,91.655 C142.598,92.104 144.348,92.814 146.084,93.506 C146.746,93.769 147.354,94.254 147.881,94.75 C148.843,95.656 148.907,96.817 147.853,97.602 C146.696,98.464 145.389,99.212 144.037,99.707 C139.177,101.486 134.076,102.17 128.96,102.675 C121.062,103.455 113.144,103.665 105.218,103.179 C97.883,102.73 90.56,102.15 83.543,99.733 C82.289,99.3 81.055,98.683 79.967,97.926 C78.481,96.894 78.419,95.312 79.994,94.45 C82.112,93.291 84.387,92.276 86.718,91.677 C95.597,89.395 104.701,89.061 113.741,88.907" id="Fill-194" fill="#FFFFFF" sketch:type="MSShapeGroup" mask="url(#mask-92)"></path>
            </g>
            <path d="M146.359,126.597 L150.374,134.73 L159.35,136.035 L152.855,142.366 L154.388,151.306 L146.359,147.085 L138.331,151.306 L139.864,142.366 L133.369,136.035 L142.345,134.73 L146.359,126.597" id="Fill-196" fill="#FFFFFF" sketch:type="MSShapeGroup"></path>
            <path d="M18.125,176.625 L29.437,170.937 L35.75,176.875 L18.125,176.625" id="Fill-197" fill="#181A1A" sketch:type="MSShapeGroup"></path>
            <path d="M20.132,178.509 L267.736,178.509 L267.736,222.009 L20.132,222.009 L20.132,178.509 Z" id="Fill-198" fill="#FFFFFF" sketch:type="MSShapeGroup"></path>
            <path d="M267.736,222.009 L267.736,220.074 L22.066,220.074 L22.066,180.443 L265.801,180.443 L265.801,222.009 L267.736,222.009 L267.736,220.074 L267.736,222.009 L269.67,222.009 L269.67,176.574 L18.197,176.574 L18.197,223.943 L269.67,223.943 L269.67,222.009 L267.736,222.009" id="Fill-199" fill="#1A1918" sketch:type="MSShapeGroup"></path>
            <path d="M22.069,190.876 L22.069,193.069 L39.236,191.996 L22.069,190.876" id="Fill-200" fill="#272727" sketch:type="MSShapeGroup"></path>
            <path d="M22.069,199.745 L22.069,201.938 L39.236,200.866 L22.069,199.745" id="Fill-201" fill="#272727" sketch:type="MSShapeGroup"></path>
            <path d="M22.069,208.615 L22.069,210.808 L39.236,209.735 L22.069,208.615" id="Fill-202" fill="#272727" sketch:type="MSShapeGroup"></path>
            <path d="M265.736,208.281 L248.569,209.354 L265.736,210.475 L265.736,208.281" id="Fill-203" fill="#272727" sketch:type="MSShapeGroup"></path>
            <path d="M265.736,199.412 L248.569,200.485 L265.736,201.605 L265.736,199.412" id="Fill-204" fill="#272727" sketch:type="MSShapeGroup"></path>
            <path d="M265.736,190.542 L248.569,191.615 L265.736,192.736 L265.736,190.542" id="Fill-205" fill="#272727" sketch:type="MSShapeGroup"></path>
            <text id="STEP-3" sketch:type="MSTextLayer" font-family="Duke" font-size="30.6352" font-weight="normal" fill="#1A1918">
                <tspan x="120.3466" y="209.837338">STEP 3</tspan>
            </text>
        </g>
    </g>
</svg>